<?xml version="1.0" encoding="UTF-8"?>
<svg id="Layer_1" xmlns="http://www.w3.org/2000/svg" version="1.1" viewBox="0 0 365.83 365.83">
  <!-- Generator: Adobe Illustrator 29.2.1, SVG Export Plug-In . SVG Version: 2.1.0 Build 116)  -->
  <defs>
    <style>
      .st0 {
        fill: #ffff08;
      }
    </style>
  </defs>
  <path class="st0" d="M56.08,0C25.1,0,0,25.1,0,56.07v253.69c0,30.96,25.1,56.07,56.07,56.07h253.69c30.96,0,56.07-25.1,56.07-56.07V0H56.08ZM282.98,311.94h-136.36c-6.63,0-12.99-2.63-17.68-7.32l-33.87-33.87-33.87-33.87c-4.69-4.69-7.32-11.05-7.32-17.68V82.84c0-6.65,8.04-9.99,12.75-5.28l69.63,69.62v41.19h41.2v41.19h41.18l69.62,69.62c4.71,4.71,1.38,12.76-5.28,12.76ZM311.95,282.99c0,6.66-8.05,9.99-12.76,5.28l-69.62-69.62v-82.38h-82.39s-69.62-69.63-69.62-69.63c-4.71-4.71-1.37-12.75,5.28-12.75h146.72l82.39,82.39v146.71Z"/>
</svg>