<?xml version="1.0" encoding="UTF-8"?>
<svg id="Layer_1" xmlns="http://www.w3.org/2000/svg" version="1.1" viewBox="0 0 1148.36 367.99">
  <!-- Generator: Adobe Illustrator 29.2.1, SVG Export Plug-In . SVG Version: 2.1.0 Build 116)  -->
  <defs>
    <style>
      .st0 {
        fill: #ffff08;
      }

      .st1 {
        fill: #fff;
      }
    </style>
  </defs>
  <path class="st0" d="M56.08,0C25.1,0,0,25.1,0,56.07v253.69c0,30.96,25.1,56.07,56.07,56.07h253.69c30.96,0,56.07-25.1,56.07-56.07V0H56.08ZM282.98,311.94h-136.36c-6.63,0-12.99-2.63-17.68-7.32l-67.74-67.74c-4.69-4.69-7.32-11.05-7.32-17.68V82.84c0-6.65,8.04-9.99,12.75-5.28l69.63,69.62v41.19h41.2v41.19h41.18l69.62,69.62c4.71,4.71,1.38,12.76-5.28,12.76ZM311.95,282.99c0,6.66-8.05,9.99-12.76,5.28l-69.62-69.62v-82.38h-82.38l-69.63-69.63c-4.71-4.71-1.37-12.75,5.28-12.75h146.72l82.39,82.39v146.71Z"/>
  <g>
    <polygon class="st1" points="512.52 182.42 445.18 182.42 445.18 168.45 506.67 168.45 506.67 136.97 444.51 136.97 444.51 125.51 511.18 125.51 511.18 92.19 408.18 92.19 408.18 215.41 512.52 215.41 512.52 182.42"/>
    <path class="st1" d="M628.33,198.24c12.67-10.84,19.37-26.32,19.37-44.77,0-38.58-27.53-61.61-73.64-61.61h-48.74v123.22h48.74c22.63,0,41.39-5.82,54.27-16.83h0ZM574.06,181.75h-12.08v-56.58h12.08c23.09,0,35.81,10.05,35.81,28.29s-13.39,28.29-35.81,28.29Z"/>
    <path class="st1" d="M715.76,217.91c51.86,0,59.6-36.82,59.6-58.77v-67.46h-36.99v63.45c0,19.87-7.18,29.12-22.61,29.12s-22.61-9.25-22.61-29.12v-63.28h-36.99v67.29c0,21.95,7.74,58.77,59.6,58.77h0Z"/>
    <path class="st1" d="M498.36,324.77c-8.11,6.08-19.18,9.57-30.38,9.57-20.13,0-33.14-12.09-33.14-30.8s13.47-30.96,34.31-30.96c9.65,0,18.28,2.52,26.39,7.7l3.15,2.01,12.63-30.64-2.26-1.39c-12.53-7.73-26.11-11.33-42.75-11.33-41.79,0-68.79,25.36-68.79,64.62s25.72,64.45,67.12,64.45c18.06,0,33.63-4.78,47.58-14.61l2.08-1.46-12.78-29.53-3.17,2.38h.01Z"/>
    <path class="st1" d="M584.12,238.93c-20.61,0-37.77,6.27-49.62,18.13-11.85,11.86-17.5,27.52-17.5,46.49,0,39.75,25.72,64.45,67.12,64.45s66.95-24.7,66.95-64.45c0-18.96-6.04-35.03-17.48-46.49-11.84-11.86-28.95-18.13-49.48-18.13h0ZM584.12,334.67c-18.38,0-29.79-11.93-29.79-31.13s11.42-31.3,29.79-31.3,29.13,11.99,29.13,31.3-11.16,31.13-29.13,31.13Z"/>
    <path class="st1" d="M752.16,317.18c11.7-4.54,24.57-16.33,24.57-35.86,0-23.56-19.45-39.38-48.41-39.38h-67.12v123.22h36.99v-40.6h16.7c14.06,10.99,20.51,26.73,21.85,37.86l.33,2.75h40.86l-.4-3.48c-1.44-12.49-9.98-31.5-25.39-44.49l.02-.02ZM697.53,274.58h27.96c8.53,0,12.42,4.88,12.42,9.41,0,4.88-4.76,7.9-12.42,7.9h-27.96v-17.31Z"/>
    <polygon class="st1" points="782.95 274.92 823.73 274.92 823.73 365.15 860.72 365.15 860.72 274.92 901.49 274.92 901.49 241.94 782.95 241.94 782.95 274.92"/>
    <polygon class="st1" points="1092.95 331.17 1147.06 271.21 1147.86 270.32 1147.86 241.94 1048.21 241.94 1048.21 275.42 1097.69 275.42 1044.65 335.22 1043.86 336.11 1043.86 365.15 1148.36 365.15 1148.36 331.17 1092.95 331.17"/>
    <path class="st1" d="M968.13,239.04c-38.44,0-65.28,26.44-65.28,64.29,0,19.26,6.48,35.49,18.74,46.92,12.38,11.53,30.07,17.62,51.16,17.62s35.61-5.64,48.87-11.73l.84-.39-10.89-29.27-.98.47c-13.28,6.29-24.69,9.22-35.9,9.22-18.97,0-31.52-8.28-33.57-22.15v-.07h88.41l.24-4.8c1.11-21.25-4.92-39.95-16.97-52.65-10.84-11.43-26.28-17.48-44.66-17.48v.02ZM941.83,290.77l.02-.07c3.76-14.54,16.29-19.72,26.77-19.72,11.26,0,23.91,6.17,25.07,19.74v.06h-51.86Z"/>
  </g>
</svg>