<?xml version="1.0" encoding="UTF-8"?>
<svg id="Layer_1" xmlns="http://www.w3.org/2000/svg" version="1.1" viewBox="0 0 365.8 365.8">
  <!-- Generator: Adobe Illustrator 29.2.1, SVG Export Plug-In . SVG Version: 2.1.0 Build 116)  -->
  <defs>
    <style>
      .st0 {
        fill: #0b1215;
      }

      .st1 {
        fill: #ffff08;
      }
    </style>
  </defs>
  <path class="st1" d="M0,56.1v253.7c0,31,25.1,56.1,56.1,56.1h253.7c31,0,56.1-25.1,56.1-56.1V0H56.1C25.1,0,0,25.1,0,56.1Z"/>
  <g>
    <path class="st0" d="M177.4,188.4h-41.2v-41.2l-69.6-69.6c-4.7-4.7-12.8-1.4-12.8,5.3v136.4c0,6.6,2.6,13,7.3,17.7l33.9,33.9h0l33.9,33.9c4.7,4.7,11.1,7.3,17.7,7.3h136.4c6.7,0,10-8,5.3-12.8l-69.6-69.6h-41.2v-41.2h0Z"/>
    <path class="st0" d="M147.2,136.3l-69.6-69.6c-4.7-4.7-1.4-12.8,5.3-12.8h146.7l82.4,82.4v146.7c0,6.7-8,10-12.8,5.3l-69.6-69.6v-82.4h-82.4Z"/>
  </g>
</svg>