<?xml version="1.0" encoding="UTF-8"?>
<svg id="Layer_1" xmlns="http://www.w3.org/2000/svg" version="1.1" viewBox="0 0 1148.4 368">
  <!-- Generator: Adobe Illustrator 29.2.1, SVG Export Plug-In . SVG Version: 2.1.0 Build 116)  -->
  <defs>
    <style>
      .st0 {
        fill: #0b1215;
      }

      .st1 {
        fill: #ffff08;
      }

      .st2 {
        fill: #fff;
      }
    </style>
  </defs>
  <path class="st1" d="M0,56.1v253.7c0,31,25.1,56.1,56.1,56.1h253.7c31,0,56.1-25.1,56.1-56.1V0H56.1C25.1,0,0,25.1,0,56.1Z"/>
  <g>
    <polygon class="st2" points="512.5 182.4 445.2 182.4 445.2 168.4 506.7 168.4 506.7 137 444.5 137 444.5 125.5 511.2 125.5 511.2 92.2 408.2 92.2 408.2 215.4 512.5 215.4 512.5 182.4"/>
    <path class="st2" d="M628.3,198.2c12.7-10.8,19.4-26.3,19.4-44.8,0-38.6-27.5-61.6-73.6-61.6h-48.7v123.2h48.7c22.6,0,41.4-5.8,54.3-16.8h0ZM574.1,181.8h-12.1v-56.6h12.1c23.1,0,35.8,10.1,35.8,28.3s-13.4,28.3-35.8,28.3Z"/>
    <path class="st2" d="M715.8,217.9c51.9,0,59.6-36.8,59.6-58.8v-67.5h-37v63.5c0,19.9-7.2,29.1-22.6,29.1s-22.6-9.2-22.6-29.1v-63.3h-37v67.3c0,21.9,7.7,58.8,59.6,58.8h0Z"/>
    <path class="st2" d="M498.4,324.8c-8.1,6.1-19.2,9.6-30.4,9.6-20.1,0-33.1-12.1-33.1-30.8s13.5-31,34.3-31,18.3,2.5,26.4,7.7l3.1,2,12.6-30.6-2.3-1.4c-12.5-7.7-26.1-11.3-42.8-11.3-41.8,0-68.8,25.4-68.8,64.6s25.7,64.5,67.1,64.5,33.6-4.8,47.6-14.6l2.1-1.5-12.8-29.5-3.2,2.4h0Z"/>
    <path class="st2" d="M584.1,238.9c-20.6,0-37.8,6.3-49.6,18.1-11.8,11.9-17.5,27.5-17.5,46.5,0,39.8,25.7,64.5,67.1,64.5s67-24.7,67-64.5-6-35-17.5-46.5c-11.8-11.9-29-18.1-49.5-18.1h0ZM584.1,334.7c-18.4,0-29.8-11.9-29.8-31.1s11.4-31.3,29.8-31.3,29.1,12,29.1,31.3-11.2,31.1-29.1,31.1Z"/>
    <path class="st2" d="M752.2,317.2c11.7-4.5,24.6-16.3,24.6-35.9s-19.5-39.4-48.4-39.4h-67.1v123.2h37v-40.6h16.7c14.1,11,20.5,26.7,21.8,37.9l.3,2.8h40.9l-.4-3.5c-1.4-12.5-10-31.5-25.4-44.5h0ZM697.5,274.6h28c8.5,0,12.4,4.9,12.4,9.4s-4.8,7.9-12.4,7.9h-28v-17.3Z"/>
    <polygon class="st2" points="783 274.9 823.7 274.9 823.7 365.1 860.7 365.1 860.7 274.9 901.5 274.9 901.5 241.9 783 241.9 783 274.9"/>
    <polygon class="st2" points="1092.9 331.2 1147.1 271.2 1147.9 270.3 1147.9 241.9 1048.2 241.9 1048.2 275.4 1097.7 275.4 1044.7 335.2 1043.9 336.1 1043.9 365.1 1148.4 365.1 1148.4 331.2 1092.9 331.2"/>
    <path class="st2" d="M968.1,239c-38.4,0-65.3,26.4-65.3,64.3s6.5,35.5,18.7,46.9c12.4,11.5,30.1,17.6,51.2,17.6s35.6-5.6,48.9-11.7l.8-.4-10.9-29.3-1,.5c-13.3,6.3-24.7,9.2-35.9,9.2-19,0-31.5-8.3-33.6-22.1h0c0,0,88.4,0,88.4,0l.2-4.8c1.1-21.2-4.9-40-17-52.6-10.8-11.4-26.3-17.5-44.7-17.5h0s0,0,0,0ZM941.8,290.8h0c3.8-14.6,16.3-19.8,26.8-19.8s23.9,6.2,25.1,19.7h0c0,0-51.9,0-51.9,0h0Z"/>
  </g>
  <g>
    <path class="st0" d="M177.4,188.4h-41.2v-41.2l-69.6-69.6c-4.7-4.7-12.8-1.4-12.8,5.3v136.4c0,6.6,2.6,13,7.3,17.7l33.9,33.9h0l33.9,33.9c4.7,4.7,11.1,7.3,17.7,7.3h136.4c6.7,0,10-8,5.3-12.8l-69.6-69.6h-41.2v-41.2h0Z"/>
    <path class="st0" d="M147.2,136.3l-69.6-69.6c-4.7-4.7-1.4-12.8,5.3-12.8h146.7l82.4,82.4v146.7c0,6.7-8,10-12.8,5.3l-69.6-69.6v-82.4h-82.4Z"/>
  </g>
</svg>