<svg width="100%" height="100%" viewBox="0 0 156 162" fill="none" xmlns="http://www.w3.org/2000/svg">
<path fill-rule="evenodd" clip-rule="evenodd" d="M102.354 18.6291C124.026 18.6291 143.103 29.7426 154.195 46.5813C141.276 19.0692 113.32 0.0192261 80.9139 0.0192261C36.2264 0.0192261 0 36.2456 0 80.9332C0 125.621 36.2264 161.847 80.9139 161.847C114.045 161.847 142.526 141.934 155.04 113.424C144.089 130.999 124.587 142.695 102.354 142.695C82.1668 142.695 64.2316 133.052 52.9037 118.121L102.431 110.066L42.998 98.7438C41.2575 93.023 40.3214 86.9519 40.3214 80.6621C40.3214 46.4022 68.0945 18.6291 102.354 18.6291ZM100.804 15.5275C118.507 15.5275 134.521 22.9392 146.049 34.8987C131.659 15.6324 108.417 3.12087 82.1937 3.12087C38.5124 3.12087 3.10165 37.8373 3.10165 80.6621C3.10165 123.487 38.5124 158.203 82.1937 158.203C108.417 158.203 131.659 145.692 146.049 126.425C134.521 138.385 118.507 145.797 100.804 145.797C77.8161 145.797 57.6778 133.301 46.5089 114.578L95.312 110.126L40.7923 102.241C38.4782 95.4878 37.2198 88.2255 37.2198 80.6621C37.2198 44.6892 65.6872 15.5275 100.804 15.5275Z" fill="#653ce0"/>
</svg>
