<svg width="674" height="252" viewBox="0 0 674 252" fill="none" xmlns="http://www.w3.org/2000/svg">
<g clip-path="url(#clip0_567_1355)">
<path d="M587.6 132.3H499.8C496.6 132.3 491.3 137.5 491.3 140.7V227C491.3 230.2 496.5 235.4 499.8 235.4H587.6V211.7H518.7V195H578.4V172H518.7V155.9H587.6V132.2V132.3Z" fill="white"/>
<path d="M673.8 186.4L608.4 121V168L626.8 186.4L608.4 204.8V251.8H673.8V219.2H641L673.8 186.4Z" fill="white"/>
<path d="M30.8 186.4L96.2 251.8V204.8L77.8001 186.4L96.2 168V121L30.8 186.4Z" fill="white"/>
<path d="M201.5 132.3H140.2C133 132.3 118.3 146.3 118.3 153.4V214.4C118.3 221.5 133.1 235.5 140.2 235.5H201.5C208.6 235.5 223.4 221.5 223.4 214.4V153.4C223.4 146.3 208.6 132.3 201.5 132.3ZM196.2 211.8H145.7V156H196.2V211.8Z" fill="white"/>
<path d="M346.2 184.1V153.4C346.2 146.3 331.4 132.3 324.3 132.3H242.6V235.5H269.9V204.5H297.8L321.4 235.5H354.7L329 203.1C336.6 199.2 346.2 188.5 346.2 184.1ZM318.9 180.8H269.8V156H318.9V180.8Z" fill="white"/>
<path d="M363.9 132.3V156H403.5L403.4 235.5H430.8V156H470.6V132.3H363.9Z" fill="white"/>
<path d="M201.2 -0.0999756H118.6V103.1H196.4V79.4H145.9V23.5H196.4V79.3H223.7V21.6C223.7 14.5 208.3 -0.0999756 201.1 -0.0999756H201.2Z" fill="white"/>
<path d="M347.3 -0.0999512H320V79.4H269.8V-0.199951H242.5V81.9C242.5 89 257.3 103 264.4 103H325.3C332.4 103 347.2 89.1 347.2 81.9V-0.199951L347.3 -0.0999512Z" fill="white"/>
<path d="M96.2 0.199951H8.4C5.2 0.199951 0 5.39995 0 8.59995V94.9C0 98.1 5.2 103.3 8.4 103.3H96.2V79.6H27.3V62.9H87V39.9H27.3V23.7999H96.2V0.199951Z" fill="white"/>
<path d="M641 219.2L608.4 251.8H673.8V219.2H641Z" fill="#F7931E"/>
</g>
<defs>
<clipPath id="clip0_567_1355">
<rect width="673.8" height="251.7" fill="white"/>
</clipPath>
</defs>
</svg>
