<svg width="294" height="440" viewBox="0 0 294 440" fill="none" xmlns="http://www.w3.org/2000/svg">
<g clip-path="url(#clip0_567_1394)">
<path d="M293.29 170.42V247.69V251.81L290.38 254.72L252.03 293.07L290.38 331.42L293.29 334.33V338.45V415.71V439.7L276.32 422.74L153.67 300.1L146.65 293.07L153.67 286.04L276.32 163.39L293.29 146.43V170.42Z" fill="#F7931E"/>
<path d="M155.71 109.9C149.91 104.1 146.65 96.23 146.65 88.02V0L129.68 16.97L7.03 139.61L0 146.64L7.03 153.67L129.68 276.32L146.65 293.29V205.27C146.65 197.06 149.91 189.19 155.71 183.39L192.44 146.66L155.71 109.93V109.9Z" fill="#F7931E"/>
</g>
<defs>
<clipPath id="clip0_567_1394">
<rect width="293.29" height="439.7" fill="white"/>
</clipPath>
</defs>
</svg>
